TITLE ""
FILE "1Q_j_2370-2383.mp3" MP3
  TRACK 01 AUDIO
    TITLE "1Q_j_2370-2383_01"
    INDEX 01 00:00:00
  TRACK 02 AUDIO
    TITLE "1Q_j_2370-2383_02"
    INDEX 01 00:00:08
  TRACK 03 AUDIO
    TITLE "1Q_j_2370-2383_03"
    INDEX 01 00:01:39
  TRACK 04 AUDIO
    TITLE "1Q_j_2370-2383_04"
    INDEX 01 00:01:45
  TRACK 05 AUDIO
    TITLE "1Q_j_2370-2383_05"
    INDEX 01 00:04:02
  TRACK 06 AUDIO
    TITLE "1Q_j_2370-2383_06"
    INDEX 01 00:04:10
  TRACK 07 AUDIO
    TITLE "1Q_j_2370-2383_07"
    INDEX 01 00:09:66
  TRACK 08 AUDIO
    TITLE "1Q_j_2370-2383_08"
    INDEX 01 00:10:42
  TRACK 09 AUDIO
    TITLE "1Q_j_2370-2383_09"
    INDEX 01 00:12:13
  TRACK 10 AUDIO
    TITLE "1Q_j_2370-2383_10"
    INDEX 01 00:12:21
  TRACK 11 AUDIO
    TITLE "1Q_j_2370-2383_11"
    INDEX 01 00:14:01
  TRACK 12 AUDIO
    TITLE "1Q_j_2370-2383_12"
    INDEX 01 00:14:10
  TRACK 13 AUDIO
    TITLE "1Q_j_2370-2383_13"
    INDEX 01 00:20:37
  TRACK 14 AUDIO
    TITLE "1Q_j_2370-2383_14"
    INDEX 01 00:21:09
  TRACK 15 AUDIO
    TITLE "1Q_j_2370-2383_15"
    INDEX 01 00:22:18
  TRACK 16 AUDIO
    TITLE "1Q_j_2370-2383_16"
    INDEX 01 00:22:26
  TRACK 17 AUDIO
    TITLE "1Q_j_2370-2383_17"
    INDEX 01 00:29:28
  TRACK 18 AUDIO
    TITLE "1Q_j_2370-2383_18"
    INDEX 01 00:29:34
  TRACK 19 AUDIO
    TITLE "1Q_j_2370-2383_19"
    INDEX 01 00:36:04
  TRACK 20 AUDIO
    TITLE "1Q_j_2370-2383_20"
    INDEX 01 00:36:51
  TRACK 21 AUDIO
    TITLE "1Q_j_2370-2383_21"
    INDEX 01 00:37:74
  TRACK 22 AUDIO
    TITLE "1Q_j_2370-2383_22"
    INDEX 01 00:38:07
  TRACK 23 AUDIO
    TITLE "1Q_j_2370-2383_23"
    INDEX 01 00:40:55
  TRACK 24 AUDIO
    TITLE "1Q_j_2370-2383_24"
    INDEX 01 00:40:61
  TRACK 25 AUDIO
    TITLE "1Q_j_2370-2383_25"
    INDEX 01 00:47:04
  TRACK 26 AUDIO
    TITLE "1Q_j_2370-2383_26"
    INDEX 01 00:47:47
  TRACK 27 AUDIO
    TITLE "1Q_j_2370-2383_27"
    INDEX 01 00:49:24
  TRACK 28 AUDIO
    TITLE "1Q_j_2370-2383_28"
    INDEX 01 00:49:36
  TRACK 29 AUDIO
    TITLE "1Q_j_2370-2383_29"
    INDEX 01 00:53:22
  TRACK 30 AUDIO
    TITLE "1Q_j_2370-2383_30"
    INDEX 01 00:53:28
  TRACK 31 AUDIO
    TITLE "1Q_j_2370-2383_31"
    INDEX 01 00:58:72
  TRACK 32 AUDIO
    TITLE "1Q_j_2370-2383_32"
    INDEX 01 00:59:40
  TRACK 33 AUDIO
    TITLE "1Q_j_2370-2383_33"
    INDEX 01 01:00:60
  TRACK 34 AUDIO
    TITLE "1Q_j_2370-2383_34"
    INDEX 01 01:00:67
  TRACK 35 AUDIO
    TITLE "1Q_j_2370-2383_35"
    INDEX 01 01:02:68
  TRACK 36 AUDIO
    TITLE "1Q_j_2370-2383_36"
    INDEX 01 01:02:74
  TRACK 37 AUDIO
    TITLE "1Q_j_2370-2383_37"
    INDEX 01 01:07:34
  TRACK 38 AUDIO
    TITLE "1Q_j_2370-2383_38"
    INDEX 01 01:08:04
  TRACK 39 AUDIO
    TITLE "1Q_j_2370-2383_39"
    INDEX 01 01:09:33
  TRACK 40 AUDIO
    TITLE "1Q_j_2370-2383_40"
    INDEX 01 01:09:41
  TRACK 41 AUDIO
    TITLE "1Q_j_2370-2383_41"
    INDEX 01 01:11:57
  TRACK 42 AUDIO
    TITLE "1Q_j_2370-2383_42"
    INDEX 01 01:11:63
  TRACK 43 AUDIO
    TITLE "1Q_j_2370-2383_43"
    INDEX 01 01:16:37
  TRACK 44 AUDIO
    TITLE "1Q_j_2370-2383_44"
    INDEX 01 01:17:07
  TRACK 45 AUDIO
    TITLE "1Q_j_2370-2383_45"
    INDEX 01 01:18:32
  TRACK 46 AUDIO
    TITLE "1Q_j_2370-2383_46"
    INDEX 01 01:18:40
  TRACK 47 AUDIO
    TITLE "1Q_j_2370-2383_47"
    INDEX 01 01:23:25
  TRACK 48 AUDIO
    TITLE "1Q_j_2370-2383_48"
    INDEX 01 01:23:33
  TRACK 49 AUDIO
    TITLE "1Q_j_2370-2383_49"
    INDEX 01 01:29:47
  TRACK 50 AUDIO
    TITLE "1Q_j_2370-2383_50"
    INDEX 01 01:30:18
  TRACK 51 AUDIO
    TITLE "1Q_j_2370-2383_51"
    INDEX 01 01:31:13
  TRACK 52 AUDIO
    TITLE "1Q_j_2370-2383_52"
    INDEX 01 01:31:31
  TRACK 53 AUDIO
    TITLE "1Q_j_2370-2383_53"
    INDEX 01 01:33:41
  TRACK 54 AUDIO
    TITLE "1Q_j_2370-2383_54"
    INDEX 01 01:33:49
  TRACK 55 AUDIO
    TITLE "1Q_j_2370-2383_55"
    INDEX 01 01:37:67
  TRACK 56 AUDIO
    TITLE "1Q_j_2370-2383_56"
    INDEX 01 01:38:39
  TRACK 57 AUDIO
    TITLE "1Q_j_2370-2383_57"
    INDEX 01 01:39:50
  TRACK 58 AUDIO
    TITLE "1Q_j_2370-2383_58"
    INDEX 01 01:39:60
  TRACK 59 AUDIO
    TITLE "1Q_j_2370-2383_59"
    INDEX 01 01:41:64
  TRACK 60 AUDIO
    TITLE "1Q_j_2370-2383_60"
    INDEX 01 01:41:72
  TRACK 61 AUDIO
    TITLE "1Q_j_2370-2383_61"
    INDEX 01 01:46:20
  TRACK 62 AUDIO
    TITLE "1Q_j_2370-2383_62"
    INDEX 01 01:46:67
  TRACK 63 AUDIO
    TITLE "1Q_j_2370-2383_63"
    INDEX 01 01:48:19
  TRACK 64 AUDIO
    TITLE "1Q_j_2370-2383_64"
    INDEX 01 01:48:27
  TRACK 65 AUDIO
    TITLE "1Q_j_2370-2383_65"
    INDEX 01 01:50:22
  TRACK 66 AUDIO
    TITLE "1Q_j_2370-2383_66"
    INDEX 01 01:50:30
  TRACK 67 AUDIO
    TITLE "1Q_j_2370-2383_67"
    INDEX 01 01:54:26
  TRACK 68 AUDIO
    TITLE "1Q_j_2370-2383_68"
    INDEX 01 01:54:71
  TRACK 69 AUDIO
    TITLE "1Q_j_2370-2383_69"
    INDEX 01 01:56:21
  TRACK 70 AUDIO
    TITLE "1Q_j_2370-2383_70"
    INDEX 01 01:56:29
  TRACK 71 AUDIO
    TITLE "1Q_j_2370-2383_71"
    INDEX 01 01:58:12
  TRACK 72 AUDIO
    TITLE "1Q_j_2370-2383_72"
    INDEX 01 01:58:20
  TRACK 73 AUDIO
    TITLE "1Q_j_2370-2383_73"
    INDEX 01 02:04:12
  TRACK 74 AUDIO
    TITLE "1Q_j_2370-2383_74"
    INDEX 01 02:04:60
  TRACK 75 AUDIO
    TITLE "1Q_j_2370-2383_75"
    INDEX 01 02:06:07
  TRACK 76 AUDIO
    TITLE "1Q_j_2370-2383_76"
    INDEX 01 02:06:19
  TRACK 77 AUDIO
    TITLE "1Q_j_2370-2383_77"
    INDEX 01 02:10:23
  TRACK 78 AUDIO
    TITLE "1Q_j_2370-2383_78"
    INDEX 01 02:10:33
  TRACK 79 AUDIO
    TITLE "1Q_j_2370-2383_79"
    INDEX 01 02:15:40
  TRACK 80 AUDIO
    TITLE "1Q_j_2370-2383_80"
    INDEX 01 02:16:10
  TRACK 81 AUDIO
    TITLE "1Q_j_2370-2383_81"
    INDEX 01 02:17:60
  TRACK 82 AUDIO
    TITLE "1Q_j_2370-2383_82"
    INDEX 01 02:17:68
  TRACK 83 AUDIO
    TITLE "1Q_j_2370-2383_83"
    INDEX 01 02:20:68
  TRACK 84 AUDIO
    TITLE "1Q_j_2370-2383_84"
    INDEX 01 02:21:01
  TRACK 85 AUDIO
    TITLE "1Q_j_2370-2383_85"
    INDEX 01 02:25:62
